<svg xmlns="http://www.w3.org/2000/svg" width="36" height="50" viewBox="0 0 36 50">
  <defs>
    <style>
      .cls-1 {
        fill: #3b3e4a;
        fill-rule: evenodd;
      }
    </style>
  </defs>
  <path id="pin" class="cls-1" d="M1160,396a8,8,0,1,0,8,8A7.936,7.936,0,0,0,1160,396Zm0,14a6,6,0,1,1,6-6A5.931,5.931,0,0,1,1160,410Zm0-24a18.164,18.164,0,0,0-18,18c0,14.759,18,32,18,32s18-17.241,18-32A18.164,18.164,0,0,0,1160,386Zm0,47c-4.11-4.306-16-17.576-16-29a16,16,0,0,1,32,0C1176,415.424,1164.11,428.694,1160,433Z" transform="translate(-1142 -386)"/>
</svg>
