<svg xmlns="http://www.w3.org/2000/svg" width="48" height="48" viewBox="0 0 48 48">
  <defs>
    <style>
      .cls-1 {
        fill: #3b3e4a;
        fill-rule: evenodd;
      }
    </style>
  </defs>
  <path id="profile" class="cls-1" d="M1066,763a24,24,0,1,0,24,24A24,24,0,0,0,1066,763Zm-12.19,42.3h0l2.01-9.858a5.03,5.03,0,0,1,4.65-4.321,8.749,8.749,0,0,0,11.08-.015,5.057,5.057,0,0,1,4.82,4.4l1.98,9.687A21.95,21.95,0,0,1,1053.81,805.3ZM1066,791c-4.1,0-8-4.476-8-9a8,8,0,0,1,16,0C1074,786.524,1070.1,791,1066,791Zm14.11,12.858-1.77-8.681a7.049,7.049,0,0,0-5.03-5.81A12.6,12.6,0,0,0,1076,782a10,10,0,0,0-20,0,12.611,12.611,0,0,0,2.73,7.413,7,7,0,0,0-4.88,5.7l-1.81,8.878A22,22,0,1,1,1080.11,803.858Z" transform="translate(-1042 -763)"/>
</svg>
