<svg xmlns="http://www.w3.org/2000/svg" width="50" height="42" viewBox="0 0 50 42">
  <defs>
    <style>
      .cls-1 {
        fill: #3b3e4a;
        fill-rule: evenodd;
      }
    </style>
  </defs>
  <path id="settings_2" data-name="settings 2" class="cls-1" d="M1050,488v-4h-2v4a8.071,8.071,0,0,0,0,16v22h2V504A8.071,8.071,0,0,0,1050,488Zm-1,14a6,6,0,1,1,6-6A6.006,6.006,0,0,1,1049,502Zm18,3V484h-2v21a8.07,8.07,0,0,0,0,16v5h2v-5A8.071,8.071,0,0,0,1067,505Zm-1,14a6,6,0,1,1,6-6A6.015,6.015,0,0,1,1066,519Zm18-23V484h-2v12a8.071,8.071,0,0,0,0,16v14h2V512A8.071,8.071,0,0,0,1084,496Zm-1,14a6,6,0,1,1,6-6A6.006,6.006,0,0,1,1083,510Z" transform="translate(-1041 -484)"/>
</svg>
