<svg xmlns="http://www.w3.org/2000/svg" width="55" height="46" viewBox="0 0 55 46">
  <defs>
    <style>
      .cls-1 {
        fill: #3b3e4a;
        fill-rule: evenodd;
      }
    </style>
  </defs>
  <path id="cart" class="cls-1" d="M116,229l8-22H85l-3.134-7H69v4H79l11,25h26Zm2-18-5,14H93l-7-14h32ZM94.987,233.024a6.489,6.489,0,1,0,6.5,6.488A6.494,6.494,0,0,0,94.987,233.024Zm0,8.984a2.5,2.5,0,1,1,2.5-2.5A2.5,2.5,0,0,1,94.987,242.008Zm17-8.984a6.489,6.489,0,1,0,6.5,6.488A6.495,6.495,0,0,0,111.987,233.024Zm0,8.984a2.5,2.5,0,1,1,2.5-2.5A2.5,2.5,0,0,1,111.987,242.008Z" transform="translate(-69 -200)"/>
</svg>
