<svg xmlns="http://www.w3.org/2000/svg" width="48" height="48" viewBox="0 0 48 48">
  <defs>
    <style>
      .cls-1 {
        fill: #3b3e4a;
        fill-rule: evenodd;
      }
    </style>
  </defs>
  <path id="profile" class="cls-1" d="M96,763a24,24,0,1,0,24,24A24,24,0,0,0,96,763ZM85.144,803.773l1.647-8.062,0.022-.133a4.036,4.036,0,0,1,3.986-3.484h1.2a9.309,9.309,0,0,0,8.012,0h1.374a4.035,4.035,0,0,1,3.986,3.484l1.651,8.1A19.9,19.9,0,0,1,85.144,803.773ZM96,789c-2.995,0-6-3.584-6-7a6,6,0,0,1,12,0C102,785.416,98.995,789,96,789Zm14.5,11.737-1.178-5.765a8.049,8.049,0,0,0-5.39-6.451A12.741,12.741,0,0,0,106,782a10,10,0,0,0-20,0,12.734,12.734,0,0,0,2.1,6.57,8.05,8.05,0,0,0-5.244,6.4l-1.21,5.926A20,20,0,1,1,110.5,800.737Z" transform="translate(-72 -763)"/>
</svg>
