<svg xmlns="http://www.w3.org/2000/svg" width="36" height="50" viewBox="0 0 36 50">
  <defs>
    <style>
      .cls-1 {
        fill: #3b3e4a;
        fill-rule: evenodd;
      }
    </style>
  </defs>
  <path id="pin" class="cls-1" d="M190,396a8,8,0,1,0,8,8A8,8,0,0,0,190,396Zm0,12a4,4,0,1,1,4-4A3.948,3.948,0,0,1,190,408Zm0-22a18.162,18.162,0,0,0-18,17.987C172,418.741,190,436,190,436s18-17.247,18-32A18.173,18.173,0,0,0,190,386Zm0,44c-5.5-6.04-14-17.006-14-26a14,14,0,0,1,28,0C204,412.97,195.5,423.952,190,430Z" transform="translate(-172 -386)"/>
</svg>
