<svg xmlns="http://www.w3.org/2000/svg" width="49.969" height="43" viewBox="0 0 49.969 43">
  <defs>
    <style>
      .cls-1 {
        fill: #3b3e4a;
        fill-rule: evenodd;
      }
    </style>
  </defs>
  <path id="settings_2" data-name="settings 2" class="cls-1" d="M80.944,488.961v-4.977H76.908v5.053a8.048,8.048,0,0,0,0,15.516v22.416h4.036V504.628A8.048,8.048,0,0,0,80.944,488.961Zm-1.871,11.864a4.03,4.03,0,1,1,4.036-4.03A4.038,4.038,0,0,1,79.073,500.825Zm19.066,5.106V483.984H94.1v21.875a8.048,8.048,0,0,0,0,15.663v5.447h4.036V521.45A8.047,8.047,0,0,0,98.139,505.931Zm-2.158,11.79a4.03,4.03,0,1,1,4.036-4.03A4.038,4.038,0,0,1,95.981,517.721Zm19.353-20.814V483.984H111.3V496.7a8.058,8.058,0,0,0,0,15.8v14.474h4.036V512.286A8.058,8.058,0,0,0,115.334,496.907Zm-2.423,11.72a4.03,4.03,0,1,1,4.036-4.03A4.038,4.038,0,0,1,112.911,508.627Z" transform="translate(-71 -483.969)"/>
</svg>
